<?xml version="1.0" encoding="utf-8"?>
<!-- Generator: Adobe Illustrator 20.0.0, SVG Export Plug-In . SVG Version: 6.00 Build 0)  -->
<svg version="1.1"
	 id="svg3070" inkscape:version="0.48.0 r9654" sodipodi:docname="New document 4" xmlns:cc="http://creativecommons.org/ns#" xmlns:dc="http://purl.org/dc/elements/1.1/" xmlns:inkscape="http://www.inkscape.org/namespaces/inkscape" xmlns:rdf="http://www.w3.org/1999/02/22-rdf-syntax-ns#" xmlns:sodipodi="http://sodipodi.sourceforge.net/DTD/sodipodi-0.dtd" xmlns:svg="http://www.w3.org/2000/svg"
	 xmlns="http://www.w3.org/2000/svg" xmlns:xlink="http://www.w3.org/1999/xlink" x="0px" y="0px" viewBox="0 0 75.8 76.2"
	 style="enable-background:new 0 0 75.8 76.2;" xml:space="preserve">
<style type="text/css">
	.st0{fill:#FFFFFF;}
</style>
<sodipodi:namedview  bordercolor="#666666" borderopacity="1.0" fit-margin-bottom="0" fit-margin-left="0" fit-margin-right="0" fit-margin-top="0" id="base" inkscape:current-layer="layer1" inkscape:cx="142.93233" inkscape:cy="33.703355" inkscape:document-units="px" inkscape:pageopacity="0.0" inkscape:pageshadow="2" inkscape:window-height="750" inkscape:window-maximized="1" inkscape:window-width="1280" inkscape:window-x="-8" inkscape:window-y="-8" inkscape:zoom="2.8" pagecolor="#ffffff" showgrid="false">
	</sodipodi:namedview>
<path id="path14" inkscape:connector-curvature="0" d="M0,5.5C0,2.4,2.5,0,5.6,0h64.6c3.1,0,5.6,2.4,5.6,5.5v65.3
	c0,3-2.5,5.5-5.6,5.5H5.6c-3.1,0-5.6-2.4-5.6-5.5V5.5z"/>
<path class="st0" d="M23,63.8V29.4H11.5v34.4H23z M17.2,24.7c4,0,6.5-2.6,6.5-5.9c-0.1-3.4-2.5-5.9-6.4-5.9c-3.9,0-6.5,2.6-6.5,5.9
	C10.8,22.1,13.3,24.7,17.2,24.7L17.2,24.7L17.2,24.7z M29.3,63.8h11.4V44.6c0-1,0.1-2.1,0.4-2.8c0.8-2.1,2.7-4.2,5.9-4.2
	c4.1,0,5.8,3.2,5.8,7.8v18.4h11.4V44.1c0-10.6-5.6-15.5-13.2-15.5c-6.2,0-8.9,3.5-10.4,5.8h0.1v-5H29.3
	C29.5,32.6,29.3,63.8,29.3,63.8L29.3,63.8z"/>
</svg>
